<svg width="16" height="16" viewBox="0 0 300 300" fill="none" xmlns="http://www.w3.org/2000/svg">
    <path d="M98.6494 94C138.973 94 161.579 112.94 162.343 140.819L127.518 141.88C126.601 126.425 112.778 116.273 98.6494 116.576C79.2515 116.955 64.8945 129.759 64.8945 150.062C64.8946 170.366 79.2516 182.942 98.6494 182.942C112.778 182.942 126.296 173.245 127.823 157.79L162.648 158.548C161.732 186.882 137.751 206.125 98.6494 206.125C59.548 206.125 29.0001 184.154 29 150.062C29 115.819 58.326 94.0002 98.6494 94ZM270.996 97.3125V203.377H179.352V97.3125H270.996Z" fill="#090B0B"/>
</svg>