<?xml version="1.0" encoding="UTF-8" standalone="no"?>
<svg
   aria-labelledby="title"
   viewBox="0 0 105 74.910103"
   fill="#000000"
   opacity="1"
   version="1.1"
   id="svg25"
   sodipodi:docname="coder_logo_dark.svg"
   width="105"
   height="74.910103"
   inkscape:version="1.1.2 (b8e25be833, 2022-02-05)"
   xmlns:inkscape="http://www.inkscape.org/namespaces/inkscape"
   xmlns:sodipodi="http://sodipodi.sourceforge.net/DTD/sodipodi-0.dtd"
   xmlns="http://www.w3.org/2000/svg"
   xmlns:svg="http://www.w3.org/2000/svg"
   xmlns:rdf="http://www.w3.org/1999/02/22-rdf-syntax-ns#"
   xmlns:cc="http://creativecommons.org/ns#"
   xmlns:dc="http://purl.org/dc/elements/1.1/">
  <defs
     id="defs29" />
  <sodipodi:namedview
     id="namedview27"
     pagecolor="#ffffff"
     bordercolor="#666666"
     borderopacity="1.0"
     inkscape:pageshadow="2"
     inkscape:pageopacity="0.0"
     inkscape:pagecheckerboard="0"
     showgrid="false"
     fit-margin-top="0"
     fit-margin-left="0"
     fit-margin-right="0"
     fit-margin-bottom="0"
     inkscape:zoom="3.1026393"
     inkscape:cx="170.33885"
     inkscape:cy="37.387524"
     inkscape:window-width="1920"
     inkscape:window-height="1017"
     inkscape:window-x="-8"
     inkscape:window-y="-8"
     inkscape:window-maximized="1"
     inkscape:current-layer="svg25" />
  <title
     id="title"
     lang="en">Coder logo</title>
  <path
     d="m 102.464,32.5472 c -2.093,0 -3.4873,-1.227 -3.4873,-3.7455 V 14.3362 C 98.9767,5.10163 95.1722,0 85.3443,0 H 80.779 v 9.75122 h 1.3951 c 3.8676,0 5.7064,2.13108 5.7064,5.94118 v 12.7864 c 0,5.5536 1.6485,7.8139 5.2627,8.9763 -3.6142,1.0979 -5.2627,3.4226 -5.2627,8.9762 0,3.1644 0,6.3286 0,9.4931 0,2.6476 0,5.2307 -0.6974,7.8783 -0.6975,2.4541 -1.8388,4.7788 -3.4239,6.7806 -0.8877,1.1626 -1.9022,2.1312 -3.0434,3.0354 v 1.2914 h 4.565 c 9.828,0 13.6324,-5.1016 13.6324,-14.3363 V 46.1084 c 0,-2.5831 1.3318,-3.7455 3.4878,-3.7455 H 105 v -9.7513 h -2.536 z"
     id="path13"
     style="fill:#afb1b3;fill-opacity:1" />
  <path
     d="M 71.3947,14.7257 H 57.3186 c -0.3171,0 -0.5706,-0.2583 -0.5706,-0.5812 v -1.0978 c 0,-0.3229 0.2535,-0.5812 0.5706,-0.5812 h 14.1395 c 0.3169,0 0.5706,0.2583 0.5706,0.5812 v 1.0978 c 0,0.3229 -0.3171,0.5812 -0.634,0.5812 z"
     id="path15"
     style="fill:#afb1b3;fill-opacity:1" />
  <path
     d="M 73.8044,28.6738 H 63.5327 c -0.3171,0 -0.5708,-0.2584 -0.5708,-0.5813 v -1.0977 c 0,-0.3228 0.2537,-0.5813 0.5708,-0.5813 h 10.2717 c 0.3171,0 0.5706,0.2585 0.5706,0.5813 v 1.0977 c 0,0.2584 -0.2535,0.5813 -0.5706,0.5813 z"
     id="path17"
     style="fill:#afb1b3;fill-opacity:1" />
  <path
     d="M 77.862,21.6998 H 57.3186 c -0.3171,0 -0.5706,-0.2583 -0.5706,-0.5812 v -1.0978 c 0,-0.3229 0.2535,-0.5812 0.5706,-0.5812 h 20.4799 c 0.3172,0 0.5709,0.2583 0.5709,0.5812 v 1.0978 c 0,0.2583 -0.1903,0.5812 -0.5074,0.5812 z"
     id="path19"
     style="fill:#afb1b3;fill-opacity:1" />
  <path
     d="m 41.0235,17.888 c 1.3948,0 2.7899,0.1292 4.1213,0.4521 v -2.6477 c 0,-3.7455 1.9022,-5.94118 5.7066,-5.94118 h 1.3948 V 0 H 47.681 C 37.853,0 34.0488,5.10163 34.0488,14.3362 v 4.7788 c 2.2191,-0.7749 4.5653,-1.227 6.9747,-1.227 z"
     id="path21"
     style="fill:#afb1b3;fill-opacity:1" />
  <path
     d="M 82.1739,53.0168 C 81.1594,44.8154 74.9456,37.9701 66.9564,36.4202 64.7373,35.9683 62.518,35.9036 60.3623,36.2911 c -0.0634,0 -0.0634,-0.0647 -0.1268,-0.0647 -3.4873,-7.4263 -10.9691,-12.3342 -19.0851,-12.3342 -8.116,0 -15.5344,4.7788 -19.0852,12.2052 -0.0634,0 -0.0634,0.0646 -0.1268,0.0646 -2.2826,-0.2584 -4.5652,-0.1293 -6.8478,0.452 C 7.22825,38.5512 1.26813,45.2674 0.190222,53.4041 0.0633989,54.2436 0,55.0831 0,55.8581 c 0,2.4538 1.64855,4.7141 4.05796,5.037 2.98007,0.4522 5.5797,-1.8728 5.5163,-4.8432 0,-0.4522 0,-0.9688 0.0634,-1.4208 0.50724,-4.133 3.61414,-7.6201 7.67214,-8.5889 1.2681,-0.3229 2.5362,-0.3873 3.7409,-0.1935 3.8678,0.5166 7.6721,-1.4855 9.3206,-4.9726 1.2048,-2.5831 3.107,-4.8434 5.6432,-6.0704 2.7897,-1.3562 5.9601,-1.5497 8.8769,-0.5164 3.0433,1.0977 5.3258,3.4224 6.7209,6.3284 1.4583,2.8416 2.1557,4.8434 5.2627,5.231 1.268,0.1935 4.8187,0.129 6.1504,0.0644 2.5996,0 5.1992,0.9041 7.038,2.7769 1.2046,1.2914 2.0923,2.906 2.4728,4.7141 0.5706,2.906 -0.1268,5.812 -1.8388,8.0076 -1.2048,1.5499 -2.8533,2.7123 -4.6921,3.2289 -0.8877,0.2584 -1.7754,0.3229 -2.6631,0.3229 -0.5071,0 -1.2045,0 -2.0288,0 -2.5362,0 -7.9257,0 -11.9838,0 -2.7897,0 -5.009,-2.2601 -5.009,-5.1017 v -9.5575 -9.3638 c 0,-0.7748 -0.634,-1.4205 -1.3949,-1.4205 h -1.9656 c -3.8679,0.0644 -6.9746,4.4559 -6.9746,9.1053 0,4.6497 0,16.9841 0,16.9841 0,5.037 3.9944,9.1054 8.9402,9.1054 0,0 22.0019,-0.0647 22.3188,-0.0647 5.0724,-0.5166 9.7645,-3.1642 12.9347,-7.2326 3.1704,-3.9393 4.6287,-9.1056 3.9947,-14.4007 z"
     id="path23"
     style="fill:#afb1b3;fill-opacity:1" />
  <metadata
     id="metadata846">
    <rdf:RDF>
      <cc:Work
         rdf:about="">
        <dc:title>Coder logo</dc:title>
      </cc:Work>
    </rdf:RDF>
  </metadata>
</svg>
