<svg width="52" height="37" viewBox="0 0 52 37" fill="none" xmlns="http://www.w3.org/2000/svg">
    <g clip-path="url(#clip0_4116_5204)">
        <path d="M50.4353 15.8152C49.4054 15.8152 48.7188 15.219 48.7188 13.9952V6.96621C48.7188 2.47896 46.8462 0 42.0086 0H39.7615V4.73827H40.4482C42.3519 4.73827 43.257 5.77379 43.257 7.62517V13.8383C43.257 16.5369 44.0684 17.6352 45.8474 18.2C44.0684 18.7335 43.257 19.8631 43.257 22.5617C43.257 24.0993 43.257 25.6369 43.257 27.1745C43.257 28.461 43.257 29.7162 42.9137 31.0027C42.5704 32.1952 42.0086 33.3248 41.2284 34.2975C40.7914 34.8625 40.2921 35.3331 39.7304 35.7725V36.4H41.9774C46.815 36.4 48.6876 33.921 48.6876 29.4338V22.4048C48.6876 21.1496 49.343 20.5848 50.4042 20.5848H51.6838V15.8465H50.4353V15.8152Z" fill="#6E6E6E"/>
        <path d="M35.1425 7.15546H28.2139C28.0578 7.15546 27.9331 7.02994 27.9331 6.87305V6.33961C27.9331 6.18271 28.0578 6.05719 28.2139 6.05719H35.1738C35.3297 6.05719 35.4546 6.18271 35.4546 6.33961V6.87305C35.4546 7.02994 35.2985 7.15546 35.1425 7.15546Z" fill="#6E6E6E"/>
        <path d="M36.3282 13.9331H31.2723C31.1162 13.9331 30.9913 13.8075 30.9913 13.6506V13.1172C30.9913 12.9603 31.1162 12.8348 31.2723 12.8348H36.3282C36.4843 12.8348 36.6091 12.9603 36.6091 13.1172V13.6506C36.6091 13.7762 36.4843 13.9331 36.3282 13.9331Z" fill="#6E6E6E"/>
        <path d="M38.3259 10.5443H28.2139C28.0578 10.5443 27.9331 10.4187 27.9331 10.2619V9.7284C27.9331 9.5715 28.0578 9.446 28.2139 9.446H38.2947C38.4508 9.446 38.5756 9.5715 38.5756 9.7284V10.2619C38.5756 10.3874 38.482 10.5443 38.3259 10.5443Z" fill="#6E6E6E"/>
        <path d="M20.193 8.69207C20.8796 8.69207 21.5662 8.75483 22.2216 8.91173V7.62517C22.2216 5.80517 23.1579 4.73827 25.0306 4.73827H25.7171V0H23.47C18.6324 0 16.7599 2.47896 16.7599 6.96621V9.28827C17.8522 8.91173 19.007 8.69207 20.193 8.69207Z" fill="#6E6E6E"/>
        <path d="M40.4482 25.7617C39.9488 21.7765 36.8902 18.4503 32.9577 17.6972C31.8654 17.4776 30.773 17.4462 29.7119 17.6345C29.6807 17.6345 29.6807 17.603 29.6495 17.603C27.9329 13.9945 24.2502 11.6096 20.2553 11.6096C16.2604 11.6096 12.6089 13.9317 10.8611 17.5403C10.8299 17.5403 10.8299 17.5717 10.7986 17.5717C9.6751 17.4462 8.55154 17.5089 7.42797 17.7913C3.55794 18.7327 0.6242 21.9962 0.0936299 25.9499C0.0312099 26.3578 0 26.7658 0 27.1424C0 28.3347 0.81146 29.433 1.99743 29.5899C3.4643 29.8097 4.74391 28.6799 4.7127 27.2365C4.7127 27.0168 4.7127 26.7658 4.74391 26.5462C4.9936 24.5378 6.52288 22.8434 8.52032 22.3727C9.14452 22.2158 9.76872 22.1845 10.3617 22.2786C12.2655 22.5297 14.1381 21.5568 14.9496 19.8624C15.5426 18.6072 16.4789 17.5089 17.7273 16.9127C19.1004 16.2537 20.661 16.1597 22.0967 16.6617C23.5947 17.1951 24.7183 18.3247 25.4049 19.7368C26.1227 21.1176 26.466 22.0903 27.9954 22.2786C28.6195 22.3727 30.3673 22.3413 31.0228 22.3099C32.3024 22.3099 33.582 22.7493 34.4871 23.6593C35.08 24.2868 35.5169 25.0713 35.7042 25.9499C35.9851 27.362 35.6418 28.7741 34.7991 29.841C34.2061 30.5941 33.3946 31.1589 32.4895 31.4099C32.0526 31.5355 31.6157 31.5668 31.1787 31.5668C30.9291 31.5668 30.5858 31.5668 30.1801 31.5668C28.9317 31.5668 26.2788 31.5668 24.2813 31.5668C22.9082 31.5668 21.8158 30.4686 21.8158 29.0878V24.4437V19.8937C21.8158 19.5172 21.5037 19.2034 21.1292 19.2034H20.1616C18.2578 19.2347 16.7285 21.3686 16.7285 23.6278C16.7285 25.8872 16.7285 31.8807 16.7285 31.8807C16.7285 34.3282 18.6947 36.3051 21.1292 36.3051C21.1292 36.3051 31.9591 36.2737 32.115 36.2737C34.6118 36.0227 36.9214 34.7362 38.4819 32.7593C40.0424 30.8451 40.7602 28.3347 40.4482 25.7617Z" fill="#6E6E6E"/>
    </g>
    <defs>
        <clipPath id="clip0_4116_5204">
            <rect width="52" height="36.4" fill="white"/>
        </clipPath>
    </defs>
</svg>